<svg width="32" height="32" viewBox="0 0 32 32" fill="none" xmlns="http://www.w3.org/2000/svg">
<g id="LinkedIn">
<circle id="Ellipse 4" cx="16" cy="16" r="16" fill="#363636"/>
<path id="Vector" d="M11.5677 8.7785C11.5674 9.50229 11.1267 10.1536 10.4536 10.4253C9.78042 10.6971 9.00915 10.535 8.50346 10.0154C7.99777 9.49589 7.85865 8.72269 8.15169 8.06043C8.44474 7.39817 9.11143 6.97909 9.83739 7.00081C10.8016 7.02965 11.5681 7.81716 11.5677 8.7785ZM11.6212 11.8717H8.05356V23H11.6212V11.8717ZM17.2582 11.8717H13.7083V23H17.2225V17.1603C17.2225 13.9071 21.4769 13.6049 21.4769 17.1603V23H25V15.9515C25 10.4673 18.7031 10.6717 17.2225 13.3649L17.2582 11.8717Z" fill="#F5F7F9"/>
</g>
</svg>
