<svg width="90" height="63" viewBox="0 0 90 63" fill="none" xmlns="http://www.w3.org/2000/svg">
<g id="Group 72">
<path id="Ellipse 1" d="M89.2886 19.953C89.2886 22.5453 88.1086 25.0525 85.8984 27.3749C83.6857 29.7 80.4602 31.8166 76.4363 33.605C68.3896 37.1813 57.2383 39.406 44.8943 39.406C32.5503 39.406 21.3989 37.1813 13.3523 33.605C9.32836 31.8166 6.10291 29.7 3.89021 27.3749C1.67997 25.0525 0.5 22.5453 0.5 19.953C0.5 17.3608 1.67997 14.8536 3.89021 12.5311C6.10291 10.206 9.32836 8.08943 13.3523 6.30101C21.3989 2.72473 32.5503 0.5 44.8943 0.5C57.2383 0.5 68.3896 2.72473 76.4363 6.30101C80.4602 8.08943 83.6857 10.206 85.8984 12.5311C88.1086 14.8536 89.2886 17.3608 89.2886 19.953Z" stroke="#363636" stroke-opacity="0.45"/>
<path id="Ellipse 2" d="M89.2886 31.0973C89.2886 36.4649 84.5199 41.4852 76.431 45.1926C68.3858 48.88 57.2364 51.1739 44.8943 51.1739C32.5522 51.1739 21.4027 48.88 13.3576 45.1926C5.26871 41.4852 0.5 36.4649 0.5 31.0973C0.5 25.7297 5.26871 20.7094 13.3576 17.002C21.4027 13.3146 32.5522 11.0208 44.8943 11.0208C57.2364 11.0208 68.3858 13.3146 76.431 17.002C84.5199 20.7094 89.2886 25.7297 89.2886 31.0973Z" stroke="#363636" stroke-opacity="0.45"/>
<path id="Ellipse 3" d="M89.2886 42.2416C89.2886 44.8338 88.1086 47.341 85.8984 49.6635C83.6857 51.9886 80.4602 54.1052 76.4363 55.8936C68.3896 59.4699 57.2383 61.6946 44.8943 61.6946C32.5503 61.6946 21.3989 59.4699 13.3523 55.8936C9.32836 54.1052 6.10291 51.9886 3.89021 49.6635C1.67997 47.341 0.5 44.8338 0.5 42.2416C0.5 39.6493 1.67997 37.1422 3.89021 34.8197C6.10291 32.4946 9.32836 30.378 13.3523 28.5896C21.3989 25.0133 32.5503 22.7886 44.8943 22.7886C57.2383 22.7886 68.3896 25.0133 76.4363 28.5896C80.4602 30.378 83.6857 32.4946 85.8984 34.8197C88.1086 37.1422 89.2886 39.6493 89.2886 42.2416Z" stroke="#363636" stroke-opacity="0.45"/>
</g>
</svg>
